<svg width="192" height="36" viewBox="0 0 192 36" fill="none" xmlns="http://www.w3.org/2000/svg">
<path d="M15.5938 3.53125C15.1875 4.40625 14.599 5.76042 13.8281 7.59375C13.1198 9.4375 12.1198 11.5729 10.8281 14C9.69271 16.0625 8.55729 18.1302 7.42188 20.2031C7.20312 20.6198 6.26042 22.6094 4.59375 26.1719C4.20833 26.9948 3.59896 27.4062 2.76562 27.4062C2.22396 27.4062 1.75 27.2344 1.34375 26.8906C0.90625 26.5156 0.6875 26.0573 0.6875 25.5156C0.6875 25.276 0.734375 25.0365 0.828125 24.7969C1.65104 22.6615 3.1875 19.5833 5.4375 15.5625C7.6875 11.5312 9.22396 8.4375 10.0469 6.28125C10.6719 4.64583 11.1354 3.53646 11.4375 2.95312C12.25 1.35938 13.0156 0.572917 13.7344 0.59375C14.2656 0.614583 14.7344 0.796875 15.1406 1.14062C15.5781 1.51562 15.7969 1.96875 15.7969 2.5C15.7969 2.82292 15.7292 3.16667 15.5938 3.53125ZM31.9688 3.53125C31.5625 4.40625 30.974 5.76042 30.2031 7.59375C29.4948 9.4375 28.4948 11.5729 27.2031 14C26.0677 16.0625 24.9323 18.1302 23.7969 20.2031C23.5781 20.6198 22.6354 22.6094 20.9688 26.1719C20.5833 26.9948 19.974 27.4062 19.1406 27.4062C18.599 27.4062 18.125 27.2344 17.7188 26.8906C17.2812 26.5156 17.0625 26.0573 17.0625 25.5156C17.0625 25.276 17.1094 25.0365 17.2031 24.7969C18.026 22.6615 19.5625 19.5833 21.8125 15.5625C24.0625 11.5312 25.599 8.4375 26.4219 6.28125C27.0469 4.64583 27.5104 3.53646 27.8125 2.95312C28.625 1.35938 29.3906 0.572917 30.1094 0.59375C30.6406 0.614583 31.1094 0.796875 31.5156 1.14062C31.9531 1.51562 32.1719 1.96875 32.1719 2.5C32.1719 2.82292 32.1042 3.16667 31.9688 3.53125ZM53.6094 16.8125C52.901 19.9167 51.474 22.401 49.3281 24.2656C47.151 26.1406 44.599 27.0781 41.6719 27.0781C38.901 27.0781 36.8229 26.349 35.4375 24.8906C34.0521 23.4219 33.3594 21.224 33.3594 18.2969C33.3594 15.6302 34.0156 12.8958 35.3281 10.0938C36.6406 7.29167 38.3281 5.02083 40.3906 3.28125C41.8385 2.0625 43.3906 1.45312 45.0469 1.45312C46.0573 1.45312 47.4323 1.81771 49.1719 2.54688C51.2344 3.41146 52.2656 4.33333 52.2656 5.3125C52.2656 5.875 52.0521 6.38021 51.625 6.82812C51.1979 7.26562 50.6719 7.48438 50.0469 7.48438C49.7344 7.48438 49.0417 7.19271 47.9688 6.60938C46.9062 6.01562 45.9323 5.71875 45.0469 5.71875C44.1094 5.71875 42.8438 6.72917 41.25 8.75C38.9271 11.6875 37.7656 14.8698 37.7656 18.2969C37.7656 20.0365 38.0208 21.2188 38.5312 21.8438C39.0729 22.5 40.1198 22.8281 41.6719 22.8281C43.2656 22.8281 44.6667 22.375 45.875 21.4688C47.1562 20.5104 48.1042 19.1146 48.7188 17.2812C46.3021 17.4688 44.1979 17.9635 42.4062 18.7656C42.0833 18.9115 41.7604 18.9844 41.4375 18.9844C40.7917 18.9844 40.2552 18.7448 39.8281 18.2656C39.4427 17.8385 39.25 17.3542 39.25 16.8125C39.25 15.2188 41.1354 14.1042 44.9062 13.4688C47.0312 13.1146 49.5104 12.9375 52.3438 12.9375C52.9688 12.9375 53.4896 13.1406 53.9062 13.5469C54.3333 13.9531 54.5469 14.4531 54.5469 15.0469C54.5469 15.8073 54.2344 16.3958 53.6094 16.8125ZM63.9688 26.7188C61.4792 26.7188 59.4427 26.125 57.8594 24.9375C56.1094 23.625 55.2344 21.776 55.2344 19.3906C55.2344 16.7552 55.9271 14.526 57.3125 12.7031C58.8542 10.6823 60.9323 9.67188 63.5469 9.67188C65.3594 9.67188 66.8646 9.96354 68.0625 10.5469C69.6354 11.3177 70.4219 12.5156 70.4219 14.1406C70.4219 15.2865 69.7812 16.3021 68.5 17.1875C67.9167 17.5938 66.7448 18.1875 64.9844 18.9688L59.7188 21.2969C60.2188 21.8385 60.8229 22.2448 61.5312 22.5156C62.2396 22.7865 63.0521 22.9219 63.9688 22.9219C65.3646 22.9219 66.5469 22.6354 67.5156 22.0625C68.3802 21.5521 69.0729 21.2969 69.5938 21.2969C70.6771 21.2969 71.2188 21.8229 71.2188 22.875C71.2188 24.0625 70.349 25.0312 68.6094 25.7812C67.151 26.4062 65.6042 26.7188 63.9688 26.7188ZM63.5469 13.4531C62.5781 13.4531 61.75 13.776 61.0625 14.4219C60.375 15.0677 59.8229 16.0365 59.4062 17.3281C60.5833 16.8177 61.7552 16.3125 62.9219 15.8125C64.3281 15.1771 65.4479 14.5885 66.2812 14.0469C65.5833 13.651 64.6719 13.4531 63.5469 13.4531ZM81.1875 26.9844C78.8958 26.9844 76.974 26.3333 75.4219 25.0312C73.7865 23.6562 72.9688 21.8438 72.9688 19.5938C72.9688 17.5208 73.7031 15.3802 75.1719 13.1719C76.8385 10.651 78.776 9.39062 80.9844 9.39062C82.0677 9.39062 83.3333 9.68229 84.7812 10.2656C86.5417 10.9844 87.4219 11.8125 87.4219 12.75C87.4219 13.2604 87.2448 13.7135 86.8906 14.1094C86.5156 14.5365 86.0312 14.75 85.4375 14.75C84.9896 14.75 84.4479 14.5104 83.8125 14.0312C83.1875 13.5417 82.2448 13.2969 80.9844 13.2969C80.1823 13.2969 79.3125 14.0833 78.375 15.6562C77.4792 17.1771 77.0312 18.4896 77.0312 19.5938C77.0312 20.6875 77.4271 21.5469 78.2188 22.1719C78.9688 22.7656 79.9583 23.0625 81.1875 23.0625C81.8854 23.0625 82.7396 22.7969 83.75 22.2656C84.7604 21.7344 85.401 21.4688 85.6719 21.4688C86.2344 21.4688 86.7135 21.6719 87.1094 22.0781C87.5156 22.4844 87.7188 22.9479 87.7188 23.4688C87.7188 24.2812 86.8333 25.0938 85.0625 25.9062C83.4792 26.625 82.1875 26.9844 81.1875 26.9844ZM103.578 26.6406C102.755 26.6406 102.13 26.2448 101.703 25.4531C101.193 24.5052 100.427 23.3854 99.4062 22.0938C97.8229 20.0833 96.9844 19.0156 96.8906 18.8906C96.0573 19.5052 95.3698 19.974 94.8281 20.2969C94.724 21.7448 94.6719 23.1302 94.6719 24.4531C94.6719 25.0573 94.4688 25.5573 94.0625 25.9531C93.6562 26.349 93.1406 26.5469 92.5156 26.5469C91.0469 26.5469 90.3125 25.6719 90.3125 23.9219C90.3125 23.099 90.3698 21.8698 90.4844 20.2344C90.6094 18.5885 90.6719 17.3542 90.6719 16.5312C90.6719 15.0208 90.6927 13.2969 90.7344 11.3594C90.7865 9.41146 90.8125 7.69271 90.8125 6.20312C90.8125 5.75521 90.7865 5.22917 90.7344 4.625C90.6927 4.01042 90.6719 3.47917 90.6719 3.03125C90.6719 2.42708 90.875 1.93229 91.2812 1.54688C91.6875 1.15104 92.2031 0.953125 92.8281 0.953125C93.4531 0.953125 93.9688 1.15104 94.375 1.54688C94.7812 1.93229 94.9844 2.42708 94.9844 3.03125C94.9844 3.48958 95.0104 4.03125 95.0625 4.65625C95.1146 5.28125 95.1406 5.82292 95.1406 6.28125C95.1406 7.52083 95.1094 8.98958 95.0469 10.6875C94.9844 12.3125 94.9583 13.7604 94.9688 15.0312C96.3854 13.9375 98.5417 11.9479 101.438 9.0625C101.896 8.60417 102.417 8.375 103 8.375C103.583 8.375 104.099 8.58854 104.547 9.01562C104.995 9.44271 105.219 9.9375 105.219 10.5C105.219 10.9792 105.016 11.4427 104.609 11.8906C103.38 13.2656 101.917 14.7031 100.219 16.2031L103.469 20.3906C105.042 22.4844 105.828 23.8802 105.828 24.5781C105.828 25.151 105.599 25.6354 105.141 26.0312C104.682 26.4375 104.161 26.6406 103.578 26.6406ZM114.156 26.9219C112.229 26.9219 110.573 26.2604 109.188 24.9375C107.667 23.4896 106.87 21.5573 106.797 19.1406C106.724 16.8385 107.354 14.7865 108.688 12.9844C110.271 10.8594 112.474 9.79688 115.297 9.79688C117.38 9.79688 119.036 10.6302 120.266 12.2969C121.37 13.7969 121.922 15.6562 121.922 17.875C121.922 20.2917 121.276 22.3542 119.984 24.0625C118.536 25.9688 116.594 26.9219 114.156 26.9219ZM115.094 13.9219C113.812 13.9115 112.802 14.4948 112.062 15.6719C111.438 16.6615 111.125 17.8177 111.125 19.1406C111.125 20.3906 111.479 21.349 112.188 22.0156C112.75 22.5469 113.406 22.8125 114.156 22.8125C115.062 22.8125 115.849 22.5052 116.516 21.8906C117.276 21.1719 117.682 20.1979 117.734 18.9688C117.87 15.6146 116.99 13.9323 115.094 13.9219ZM131.984 26.6562C130.526 26.6562 129.141 26.401 127.828 25.8906C127.443 26.276 126.974 26.4688 126.422 26.4688C125.859 26.4688 125.375 26.2812 124.969 25.9062C124.573 25.5312 124.375 25.0625 124.375 24.5C124.375 24.25 124.391 23.8698 124.422 23.3594C124.453 22.8385 124.469 22.4531 124.469 22.2031V4.5C124.469 3.75 124.635 3.08333 124.969 2.5C125.385 1.76042 125.979 1.39062 126.75 1.39062C127.865 1.39062 128.422 1.99479 128.422 3.20312C128.422 3.33854 128.401 3.55729 128.359 3.85938C128.328 4.15104 128.312 4.36458 128.312 4.5V10.4844C129.083 10.0573 129.823 9.73958 130.531 9.53125C131.24 9.3125 131.922 9.20312 132.578 9.20312C135.026 9.20312 137.005 10.0938 138.516 11.875C139.922 13.5417 140.625 15.5625 140.625 17.9375C140.625 20.3542 139.807 22.401 138.172 24.0781C136.505 25.7969 134.443 26.6562 131.984 26.6562ZM132.578 13.2031C132.036 13.2031 131.411 13.3594 130.703 13.6719C129.995 13.9844 129.198 14.4531 128.312 15.0781C128.302 16.0677 128.302 18.2812 128.312 21.7188C129.74 22.3333 130.964 22.6406 131.984 22.6406C133.307 22.6406 134.396 22.1979 135.25 21.3125C136.104 20.4167 136.531 19.2917 136.531 17.9375C136.531 16.5833 136.182 15.4635 135.484 14.5781C134.755 13.6615 133.786 13.2031 132.578 13.2031ZM159.094 12.7969C157.958 15.1615 156.161 18.875 153.703 23.9375C152.37 26.6562 151.354 28.9115 150.656 30.7031C150.438 31.349 150.094 32.3073 149.625 33.5781C149.25 34.5573 148.583 35.0469 147.625 35.0469C147.031 35.0469 146.51 34.8542 146.062 34.4688C145.615 34.0833 145.391 33.599 145.391 33.0156C145.391 32.0469 146.495 29.1771 148.703 24.4062C147.557 22.1458 145.74 18.8177 143.25 14.4219C143 14.026 142.745 13.625 142.484 13.2188C142.203 12.7396 142.062 12.3021 142.062 11.9062C142.062 11.3438 142.286 10.849 142.734 10.4219C143.182 9.99479 143.698 9.78125 144.281 9.78125C144.969 9.78125 145.505 10.0365 145.891 10.5469C147.37 12.5156 149.094 15.4792 151.062 19.4375C152.177 16.9688 152.854 15.4792 153.094 14.9688C153.833 13.4167 154.557 12.0521 155.266 10.875C155.714 10.125 156.328 9.75 157.109 9.75C157.693 9.75 158.214 9.94792 158.672 10.3438C159.13 10.7396 159.359 11.224 159.359 11.7969C159.359 12.099 159.271 12.4323 159.094 12.7969ZM172.281 13.4219C172.062 13.4219 171.802 13.4167 171.5 13.4062C171.208 13.3854 170.953 13.375 170.734 13.375C170.307 13.375 169.812 13.4167 169.25 13.5C169.438 17.7083 169.531 20.4583 169.531 21.75C169.531 21.8854 169.536 22.1406 169.547 22.5156C169.557 22.8802 169.562 23.1771 169.562 23.4062C169.562 25.8021 168.807 27 167.297 27C166.724 27 166.229 26.8229 165.812 26.4688C165.354 26.0938 165.125 25.625 165.125 25.0625C165.125 24.6875 165.141 24.125 165.172 23.375C165.203 22.625 165.219 22.0625 165.219 21.6875C165.219 20.4271 165.125 17.7292 164.938 13.5938C164.292 13.5625 163.312 13.4792 162 13.3438C160.698 13.1979 160.047 12.5208 160.047 11.3125C160.047 10.7292 160.245 10.2344 160.641 9.82812C161.036 9.42188 161.547 9.21875 162.172 9.21875C162.557 9.21875 163.443 9.28125 164.828 9.40625C164.818 9.07292 164.792 8.52083 164.75 7.75C164.708 7.08333 164.688 6.56771 164.688 6.20312C164.688 5.61979 164.901 5.13542 165.328 4.75C165.755 4.36458 166.271 4.17188 166.875 4.17188C168.417 4.17188 169.188 5.46875 169.188 8.0625L169.156 9.34375C169.802 9.25 170.328 9.20312 170.734 9.20312C171.932 9.20312 172.75 9.28125 173.188 9.4375C174.021 9.72917 174.438 10.3646 174.438 11.3438C174.438 11.9375 174.234 12.4323 173.828 12.8281C173.422 13.224 172.906 13.4219 172.281 13.4219ZM184.219 26.7188C181.729 26.7188 179.693 26.125 178.109 24.9375C176.359 23.625 175.484 21.776 175.484 19.3906C175.484 16.7552 176.177 14.526 177.562 12.7031C179.104 10.6823 181.182 9.67188 183.797 9.67188C185.609 9.67188 187.115 9.96354 188.312 10.5469C189.885 11.3177 190.672 12.5156 190.672 14.1406C190.672 15.2865 190.031 16.3021 188.75 17.1875C188.167 17.5938 186.995 18.1875 185.234 18.9688L179.969 21.2969C180.469 21.8385 181.073 22.2448 181.781 22.5156C182.49 22.7865 183.302 22.9219 184.219 22.9219C185.615 22.9219 186.797 22.6354 187.766 22.0625C188.63 21.5521 189.323 21.2969 189.844 21.2969C190.927 21.2969 191.469 21.8229 191.469 22.875C191.469 24.0625 190.599 25.0312 188.859 25.7812C187.401 26.4062 185.854 26.7188 184.219 26.7188ZM183.797 13.4531C182.828 13.4531 182 13.776 181.312 14.4219C180.625 15.0677 180.073 16.0365 179.656 17.3281C180.833 16.8177 182.005 16.3125 183.172 15.8125C184.578 15.1771 185.698 14.5885 186.531 14.0469C185.833 13.651 184.922 13.4531 183.797 13.4531Z" fill="white"/>
</svg>
